<?xml version="1.0" encoding="UTF-8"?>
<svg id="Layer_2" data-name="Layer 2" xmlns="http://www.w3.org/2000/svg" viewBox="0 0 627.49 133.27">
  <defs>
    <style>
      .cls-1 {
        fill: #f7931e;
      }

      .cls-1, .cls-2 {
        stroke-width: 0px;
      }

      .cls-2 {
        fill: #7a0026;
      }
    </style>
  </defs>
  <g id="Layer_1-2" data-name="Layer 1">
    <g>
      <g>
        <g>
          <path class="cls-2" d="M0,71.74v-31.16h3.52v-2.82l-3.52-3.52V3.08h38.82c12.24,0,23.15,2.9,30.37,10.12l15.85,15.85c5.46,5.46,8.71,13.29,8.71,24.21,0,25.35-17.61,34.33-39.08,34.33H15.84L0,71.74Z"/>
          <path class="cls-2" d="M71.83,71.74V18.84h.79v-1.41c0-12.59,10.3-17.43,19.81-17.43,5.55,0,11.36,1.67,15.23,5.55l15.85,15.84c2.82,2.82,4.58,6.69,4.58,11.88,0,2.82-.53,5.19-1.41,7.31v12.59l3.26,3.26v31.16h-42.25l-15.84-15.84Z"/>
          <path class="cls-2" d="M156.25,86.35l-.09,1.23h-31.87l-15.84-15.84v-30.02h2.46c-2.11-2.73-3.43-6.16-3.43-10.48,0-13.47,11.62-19.19,21.92-19.19,3.96,0,7.83.7,11.36,2.38l.09-.97h31.87l15.85,15.84v28.26h-1.06c2.29,2.64,3.79,6.25,3.79,11.09,0,14.52-11.44,20.33-22.98,20.33-4.58,0-8.45-.88-12.06-2.64Z"/>
          <path class="cls-2" d="M191.12,83.27l-15.85-15.84c-2.9-2.91-4.75-7.31-4.75-13.82v-5.72l-3.26-3.26v-27.82c7.22-.35,8.8-3.08,10.65-13.73h28.08l15.85,15.84v1.23l9.15,9.15v31.16h-.88l1.5,25.35c-6.95,2.46-11.88,3.17-20.07,3.17-7.22,0-15.4-.71-20.42-5.72Z"/>
          <path class="cls-2" d="M209.78,71.74V18.84h.79v-1.41c0-12.59,10.3-17.43,19.81-17.43,5.55,0,11.36,1.67,15.23,5.55l15.85,15.84c2.82,2.82,4.58,6.69,4.58,11.88,0,2.82-.53,5.19-1.41,7.31v12.59l3.26,3.26v31.16h-42.25l-15.84-15.84Z"/>
          <path class="cls-2" d="M246.49,71.74v-31.16h3.26v-5.28l-3.26-3.26V.88h39l15.85,15.84v36.44l3.26,3.26v31.16h-42.25l-15.84-15.84Z"/>
          <path class="cls-2" d="M283.2,71.74v-31.16h3.26v-5.28l-3.26-3.26V.88h39l15.85,15.84v36.44l3.26,3.26v31.16h-42.25l-15.84-15.84Z"/>
          <path class="cls-2" d="M338.74,83.71l-15.84-15.84c-2.55-2.55-4.23-6.25-4.23-11.62,0-5.99,2.38-10.3,6.16-12.94-2.73-2.64-4.49-6.43-4.49-11.53,0-12.68,10.83-19.72,31.51-19.72,8.45,0,19.89.97,26.67,7.75l15.84,15.85c3.52,3.52,5.72,8.45,5.72,15.49v2.02l3.26,3.26v29.31c-6.43,2.55-10.74,3.26-17.43,3.26-5.9,0-10.56-.53-14.96-3.7-5.02,2.9-10.92,3.7-15.84,3.7-5.63,0-12.15-1.06-16.37-5.28Z"/>
          <path class="cls-2" d="M403.1,83.27l-15.84-15.84c-2.91-2.91-4.75-7.31-4.75-13.82v-5.72l-3.26-3.26v-27.82c7.22-.35,8.8-3.08,10.65-13.73h28.08l15.84,15.84v1.23l9.16,9.15v31.16h-.88l1.5,25.35c-6.95,2.46-11.88,3.17-20.07,3.17-7.22,0-15.41-.71-20.42-5.72Z"/>
          <path class="cls-2" d="M444.38,79.49l-15.84-15.84c-4.84-4.84-7.83-11.71-7.83-21.04,0-22.54,17.52-30.55,35.74-30.55,10.65,0,21.13,2.73,27.91,9.51l15.84,15.84c4.84,4.84,7.83,11.71,7.83,21.04,0,22.54-17.52,30.55-35.74,30.55-10.65,0-21.13-2.73-27.91-9.51Z"/>
          <path class="cls-2" d="M486.02,71.74V13.47h37.41l.44.44c2.55-1.23,5.63-1.85,9.07-1.85,5.37,0,10.12,1.67,13.47,5.02l15.85,15.85c2.9,2.9,4.67,7.13,4.67,12.41,0,10.56-6.95,17.52-17.52,17.52h-1.14v24.74h-46.39l-15.84-15.84Z"/>
          <path class="cls-2" d="M592.45,86.35l-.09,1.23h-31.87l-15.84-15.84v-30.02h2.46c-2.11-2.73-3.43-6.16-3.43-10.48,0-13.47,11.62-19.19,21.92-19.19,3.96,0,7.83.7,11.36,2.38l.09-.97h31.87l15.85,15.84v28.26h-1.06c2.29,2.64,3.79,6.25,3.79,11.09,0,14.52-11.44,20.33-22.98,20.33-4.58,0-8.45-.88-12.06-2.64Z"/>
        </g>
        <g>
          <path class="cls-1" d="M4.4,45.47h3.52v-15.14h-3.52V7.97h34.42c22.89,0,34.68,10.21,34.68,29.93s-11.8,29.93-34.68,29.93H4.4v-22.36ZM36.88,45.47c4.67,0,6.51-2.11,6.51-7.57s-1.85-7.57-6.51-7.57h-.62v15.14h.62Z"/>
          <path class="cls-1" d="M76.24,45.47h3.26v-4.75h-3.26v-11.62c3.26,2.91,9.33,4.75,16.11,4.75,5.19,0,9.86-1.06,14.08-3.26v14.88h3.26v22.36h-33.45v-22.36ZM77.03,17.66c0-8.1,5.9-13.29,15.23-13.29s15.23,5.19,15.23,13.29-5.9,13.29-15.23,13.29-15.23-5.19-15.23-13.29Z"/>
          <path class="cls-1" d="M137.33,63.87h-.35l-.53,3.96h-23.59v-21.21h4.4c4.31,2.73,9.86,4.4,16.55,4.4,2.64,0,4.4-.26,6.25-.97v-.35c-20.51-2.73-28.17-8.63-28.17-17.96,0-8.71,6.78-14.79,17.52-14.79,5.81,0,10.56,1.76,14.44,5.37h.35l.53-3.96h23.59v19.45h-4.4c-3.96-2.2-9.6-3.52-15.32-3.52-2.55,0-4.14.26-5.81.79v.35c21.65,4.4,28.26,8.19,28.26,17.87s-6.87,15.93-18.57,15.93c-5.81,0-10.12-1.5-15.14-5.37Z"/>
          <path class="cls-1" d="M174.92,54.1v-13.38h-3.26v-19.72c5.19-.88,8.1-4.75,9.86-13.03h20.07v10.39h9.15v22.36h-9.15v2.55c0,2.29,1.23,2.99,4.14,2.99.97,0,2.38-.09,4.14-.53l1.32,21.57c-3.87,1.23-9.24,1.94-15.49,1.94-15.14,0-20.77-4.05-20.77-15.14Z"/>
          <path class="cls-1" d="M214.18,45.47h3.26v-4.75h-3.26v-11.62c3.26,2.91,9.33,4.75,16.11,4.75,5.19,0,9.86-1.06,14.08-3.26v14.88h3.26v22.36h-33.45v-22.36ZM214.97,17.66c0-8.1,5.9-13.29,15.23-13.29s15.23,5.19,15.23,13.29-5.9,13.29-15.23,13.29-15.23-5.19-15.23-13.29Z"/>
          <path class="cls-1" d="M250.89,45.47h3.26v-17.34h-3.26V5.77h30.19v39.7h3.26v22.36h-33.45v-22.36Z"/>
          <path class="cls-1" d="M287.6,45.47h3.26v-17.34h-3.26V5.77h30.19v39.7h3.26v22.36h-33.45v-22.36Z"/>
          <path class="cls-1" d="M323.08,56.74c0-8.63,5.46-12.32,17.96-12.32,4.49,0,8.36.44,11.88,1.5v-10.04c0-4.05-.79-6.51-2.73-8.19l-.35.18c.53,1.23.79,2.91.79,4.67,0,7.48-4.75,11.53-12.68,11.53s-13.2-4.23-13.2-11.8c0-10.3,9.33-15.32,27.11-15.32,19.28,0,27.99,5.9,27.99,18.84v9.68h3.26v21.83c-3.7,1.32-8.19,1.94-13.03,1.94-7.75,0-12.32-1.58-14.17-5.02h-.35c-3.79,3.35-9.33,5.02-16.29,5.02-10.92,0-16.2-4.05-16.2-12.5ZM352.92,57.71v-4.75c-.44-.7-1.41-1.06-2.38-1.06-1.67,0-2.55,1.23-2.55,3.52s.88,3.43,2.55,3.43c1.06,0,1.94-.44,2.38-1.14Z"/>
          <path class="cls-1" d="M386.9,54.1v-13.38h-3.26v-19.72c5.19-.88,8.1-4.75,9.86-13.03h20.07v10.39h9.16v22.36h-9.16v2.55c0,2.29,1.23,2.99,4.14,2.99.97,0,2.38-.09,4.14-.53l1.32,21.57c-3.87,1.23-9.24,1.94-15.49,1.94-15.14,0-20.78-4.05-20.78-15.14Z"/>
          <path class="cls-1" d="M425.1,43.1c0-16.73,11.27-26.14,31.34-26.14s31.34,9.42,31.34,26.14-11.27,26.14-31.34,26.14-31.34-9.42-31.34-26.14ZM459.61,43.1c0-4.4-.97-6.07-3.17-6.07s-3.17,1.67-3.17,6.07.97,6.07,3.17,6.07,3.17-1.67,3.17-6.07Z"/>
          <path class="cls-1" d="M490.42,45.47h3.26v-4.75h-3.26v-22.36h28.61v1.58c-1.32,2.02-1.85,4.67-2.11,8.98h.35c2.11-7.57,7.57-11.97,15.67-11.97,8.54,0,13.73,4.93,13.73,13.03s-4.93,13.12-13.12,13.12c-6.25,0-10.74-2.99-12.59-8.54h-.35v10.92h7.39v22.36h-37.59v-22.36Z"/>
          <path class="cls-1" d="M573.52,63.87h-.35l-.53,3.96h-23.59v-21.21h4.4c4.31,2.73,9.86,4.4,16.55,4.4,2.64,0,4.4-.26,6.25-.97v-.35c-20.51-2.73-28.17-8.63-28.17-17.96,0-8.71,6.78-14.79,17.52-14.79,5.81,0,10.56,1.76,14.44,5.37h.35l.53-3.96h23.59v19.45h-4.4c-3.96-2.2-9.59-3.52-15.32-3.52-2.55,0-4.14.26-5.81.79v.35c21.65,4.4,28.26,8.19,28.26,17.87s-6.87,15.93-18.57,15.93c-5.81,0-10.12-1.5-15.14-5.37Z"/>
        </g>
      </g>
      <g>
        <path class="cls-2" d="M212.72,131.26v-20.8c0-.93.51-1.44,1.44-1.44h7.55c3.07,0,5.95,1.28,8.13,3.62,2.08,2.24,3.26,5.22,3.26,8.22,0,6.43-5.25,11.84-11.42,11.84h-7.52c-.93,0-1.44-.51-1.44-1.44ZM221.68,126.65c2.85,0,5.34-2.72,5.34-5.79s-2.46-5.79-5.31-5.79h-2.94v11.58h2.91Z"/>
        <path class="cls-2" d="M246.86,131.26v-20.8c0-.93.51-1.44,1.44-1.44h13.73c.93,0,1.44.51,1.44,1.44v3.17c0,.93-.51,1.44-1.44,1.44h-9.12v2.98h6.72c.93,0,1.44.51,1.44,1.44v2.72c0,.93-.51,1.44-1.44,1.44h-6.72v3.01h9.12c.93,0,1.44.51,1.44,1.44v3.17c0,.93-.51,1.44-1.44,1.44h-13.73c-.93,0-1.44-.51-1.44-1.44Z"/>
        <path class="cls-2" d="M283.28,131.26v-16.19h-4.93c-.93,0-1.44-.51-1.44-1.44v-3.17c0-.93.51-1.44,1.44-1.44h15.9c.93,0,1.44.51,1.44,1.44v3.17c0,.93-.51,1.44-1.44,1.44h-4.93v16.19c0,.93-.51,1.44-1.44,1.44h-3.17c-.93,0-1.44-.51-1.44-1.44Z"/>
        <path class="cls-2" d="M309.77,131.26v-20.8c0-.93.51-1.44,1.44-1.44h9.73c2.02,0,3.78.61,5.12,1.79,1.06.96,2.34,3.07,2.34,5.98,0,2.34-.96,4.42-2.69,5.79-.51.42-1.22.83-1.7.99l4.7,7.46c.58.93-.03,1.66-1.12,1.66h-3.74c-.83,0-1.25-.38-1.66-1.12l-4.22-7.65h-2.14v7.33c0,.93-.51,1.44-1.44,1.44h-3.17c-.93,0-1.44-.51-1.44-1.44ZM320.62,118.71c1.28,0,1.92-.93,1.92-2.18,0-1.12-.64-2.11-1.92-2.11h-4.8v4.29h4.8Z"/>
        <path class="cls-2" d="M341.68,120.86c0-6.88,5.57-12.45,12.45-12.45s12.45,5.57,12.45,12.45-5.6,12.42-12.45,12.42-12.45-5.57-12.45-12.42ZM360.49,120.86c0-3.52-2.85-6.4-6.37-6.4s-6.4,2.88-6.4,6.4,2.88,6.37,6.4,6.37,6.37-2.85,6.37-6.37Z"/>
        <path class="cls-2" d="M380.65,131.26v-20.8c0-.93.51-1.44,1.44-1.44h3.17c.93,0,1.44.51,1.44,1.44v20.8c0,.93-.51,1.44-1.44,1.44h-3.17c-.93,0-1.44-.51-1.44-1.44Z"/>
        <path class="cls-2" d="M407.15,131.26v-16.19h-4.93c-.93,0-1.44-.51-1.44-1.44v-3.17c0-.93.51-1.44,1.44-1.44h15.9c.93,0,1.44.51,1.44,1.44v3.17c0,.93-.51,1.44-1.44,1.44h-4.93v16.19c0,.93-.51,1.44-1.44,1.44h-3.17c-.93,0-1.44-.51-1.44-1.44Z"/>
      </g>
    </g>
  </g>
</svg>